<svg width="33" height="14" viewBox="0 0 33 14" fill="none" xmlns="http://www.w3.org/2000/svg">
<path fill-rule="evenodd" clip-rule="evenodd" d="M5.98302 1.79088C5.59931 2.26007 4.98538 2.63014 4.37145 2.57728C4.29471 1.94287 4.59528 1.26881 4.94701 0.852484C5.33072 0.370071 6.0022 0.0264336 6.54579 0C6.60974 0.66084 6.36033 1.30846 5.98302 1.79088ZM6.53845 2.70283C5.99759 2.67067 5.50408 2.87092 5.10545 3.03266C4.84893 3.13675 4.6317 3.2249 4.46643 3.2249C4.28098 3.2249 4.05478 3.13204 3.80082 3.02779L3.80081 3.02778L3.80081 3.02778C3.46803 2.89117 3.08757 2.73499 2.68859 2.74248C1.77409 2.7557 0.923541 3.29098 0.456697 4.14346C-0.50257 5.84843 0.207288 8.37284 1.13458 9.7606C1.58863 10.4479 2.13222 11.2012 2.84847 11.1748C3.16358 11.1625 3.39025 11.0631 3.62483 10.9603C3.8949 10.8418 4.17545 10.7188 4.61352 10.7188C5.0364 10.7188 5.30469 10.8386 5.56222 10.9536C5.8071 11.063 6.04226 11.168 6.39136 11.1616C7.1332 11.1484 7.60004 10.4743 8.05409 9.78703C8.54409 9.04941 8.75941 8.32953 8.7921 8.22027L8.79593 8.20763C8.79514 8.20682 8.78909 8.20395 8.77841 8.1989C8.61461 8.12141 7.36264 7.52915 7.35063 5.94095C7.33857 4.60789 8.34366 3.93247 8.50188 3.82615C8.51151 3.81968 8.518 3.81532 8.52094 3.81304C7.88142 2.835 6.88379 2.72927 6.53845 2.70283ZM11.6738 11.0889V0.786392H15.415C17.3463 0.786392 18.6957 2.16094 18.6957 4.16989C18.6957 6.17884 17.3207 7.56661 15.3638 7.56661H13.2214V11.0889H11.6738ZM13.2207 2.13451H15.0049C16.3479 2.13451 17.1153 2.87465 17.1153 4.1765C17.1153 5.47836 16.3479 6.22511 14.9985 6.22511H13.2207V2.13451ZM23.8041 9.85312C23.3948 10.6593 22.4931 11.1682 21.5211 11.1682C20.0822 11.1682 19.0781 10.2827 19.0781 8.94777C19.0781 7.62609 20.0502 6.86612 21.8472 6.75378L23.7785 6.63483V6.06651C23.7785 5.22724 23.2477 4.77126 22.3013 4.77126C21.5211 4.77126 20.9519 5.18759 20.8368 5.82199H19.4426C19.4874 4.4871 20.7025 3.51567 22.346 3.51567C24.1175 3.51567 25.2686 4.47388 25.2686 5.96077V11.0889H23.8361V9.85312H23.8041ZM21.9373 9.94564C21.1123 9.94564 20.5879 9.53592 20.5879 8.90812C20.5879 8.2605 21.0931 7.88382 22.0588 7.82435L23.7791 7.712V8.29354C23.7791 9.25837 22.9861 9.94564 21.9373 9.94564ZM30.0235 11.492C29.4032 13.2961 28.6933 13.8909 27.184 13.8909C27.0689 13.8909 26.6852 13.8776 26.5957 13.8512V12.6154C26.6916 12.6286 26.9282 12.6419 27.0497 12.6419C27.734 12.6419 28.1177 12.3445 28.3544 11.5713L28.495 11.1153L25.873 3.6148H27.491L29.3136 9.70113H29.3456L31.1682 3.6148H32.7414L30.0235 11.492Z" fill="#212B46"/>
</svg>
