<svg width="33" height="14" viewBox="0 0 33 14" fill="none" xmlns="http://www.w3.org/2000/svg">
<path fill-rule="evenodd" clip-rule="evenodd" d="M15.0588 10.4295V6.51664H17.0952C17.9297 6.51664 18.6341 6.23935 19.2083 5.69248L19.3461 5.55383C20.3949 4.42157 20.326 2.6577 19.2083 1.61016C18.6494 1.05558 17.8838 0.755179 17.0952 0.770584H13.8262V10.4295H15.0588ZM15.0586 5.33038V1.95669H17.126C17.5701 1.95669 17.9913 2.12615 18.3052 2.43425C18.9714 3.08125 18.9867 4.1596 18.3435 4.82972C18.0296 5.16093 17.5854 5.34579 17.126 5.33038H15.0586ZM25.0952 4.33679C24.5669 3.85154 23.8473 3.60506 22.9362 3.60506C21.7648 3.60506 20.8844 4.0364 20.3026 4.89137L21.3897 5.5769C21.7878 4.99151 22.3314 4.69881 23.0204 4.69881C23.4568 4.69881 23.8779 4.86056 24.2071 5.15326C24.5286 5.43055 24.7124 5.83108 24.7124 6.25472V6.53971C24.2377 6.27782 23.6405 6.13918 22.9056 6.13918C22.0481 6.13918 21.3591 6.33944 20.8461 6.74768C20.3332 7.15591 20.0729 7.69508 20.0729 8.38061C20.0576 9.00451 20.3255 9.5976 20.8002 9.99813C21.2825 10.4295 21.895 10.6451 22.6147 10.6451C23.4645 10.6451 24.1382 10.2677 24.6511 9.51287H24.7047V10.4295H25.8837V6.35485C25.8837 5.49987 25.6234 4.82205 25.0952 4.33679ZM21.7496 9.2125C21.4969 9.02764 21.3438 8.72724 21.3438 8.40374C21.3438 8.04172 21.5122 7.74132 21.8415 7.50255C22.1784 7.26377 22.5995 7.14053 23.0972 7.14053C23.7864 7.13283 24.3224 7.28688 24.7052 7.59498C24.7052 8.11875 24.4985 8.57319 24.0927 8.95832C23.7251 9.32804 23.2274 9.536 22.7067 9.536C22.3621 9.54371 22.0252 9.42817 21.7496 9.2125ZM28.534 13.3333L32.6529 3.82072H31.3131L29.4068 8.56546H29.3838L27.4316 3.82072H26.0918L28.7943 10.0058L27.2632 13.3333H28.534Z" fill="#3C4043"/>
<path d="M10.8039 5.66937C10.8039 5.29195 10.7733 4.91453 10.712 4.54481H5.51367V6.6784H8.49182C8.36933 7.36392 7.97122 7.98012 7.38937 8.36525V9.75169H9.16554C10.2067 8.78888 10.8039 7.36392 10.8039 5.66937Z" fill="#4285F4"/>
<path d="M5.51455 11.0919C6.99979 11.0919 8.25537 10.599 9.16642 9.7517L7.39025 8.36525C6.89261 8.70416 6.25717 8.89673 5.51455 8.89673C4.07524 8.89673 2.85795 7.91851 2.42156 6.60909H0.591797V8.04175C1.52582 9.91346 3.43214 11.0919 5.51455 11.0919Z" fill="#25D366"/>
<path d="M2.42157 6.60909C2.19185 5.92357 2.19185 5.17643 2.42157 4.4832V3.05824H0.591513C-0.197171 4.62185 -0.197171 6.47045 0.591513 8.03406L2.42157 6.60909Z" fill="#FBBC04"/>
<path d="M5.51455 2.19555C6.30311 2.18014 7.06104 2.48054 7.62758 3.02742L9.2047 1.4407C8.20177 0.500997 6.88496 -0.0150698 5.51455 0.00033522C3.43214 0.00033522 1.52582 1.18652 0.591797 3.05823L2.42156 4.49089C2.85795 3.17376 4.07524 2.19555 5.51455 2.19555Z" fill="#EA4335"/>
</svg>
