<svg width="31" height="18" viewBox="0 0 31 18" fill="none" xmlns="http://www.w3.org/2000/svg">
<path fill-rule="evenodd" clip-rule="evenodd" d="M15.031 15.7323C13.4389 17.0632 11.3737 17.8667 9.11689 17.8667C4.08177 17.8667 0 13.8671 0 8.93333C0 3.99959 4.08177 0 9.11689 0C11.3737 0 13.4389 0.803466 15.031 2.13439C16.623 0.803466 18.6883 0 20.945 0C25.9801 0 30.0619 3.99959 30.0619 8.93333C30.0619 13.8671 25.9801 17.8667 20.945 17.8667C18.6883 17.8667 16.623 17.0632 15.031 15.7323Z" fill="#ED0006"/>
<path fill-rule="evenodd" clip-rule="evenodd" d="M15.0293 15.7323C16.9893 14.0937 18.2321 11.6557 18.2321 8.93333C18.2321 6.21091 16.9893 3.77292 15.0293 2.13439C16.6214 0.803466 18.6866 0 20.9434 0C25.9785 0 30.0603 3.99959 30.0603 8.93333C30.0603 13.8671 25.9785 17.8667 20.9434 17.8667C18.6866 17.8667 16.6214 17.0632 15.0293 15.7323Z" fill="#F9A000"/>
<path fill-rule="evenodd" clip-rule="evenodd" d="M15.031 15.7323C16.991 14.0937 18.2338 11.6557 18.2338 8.93333C18.2338 6.21091 16.991 3.77292 15.031 2.13438C13.0709 3.77292 11.8281 6.21091 11.8281 8.93333C11.8281 11.6557 13.0709 14.0937 15.031 15.7323Z" fill="#FF5E00"/>
</svg>
