<svg width="15" height="18" viewBox="0 0 15 18" fill="none" xmlns="http://www.w3.org/2000/svg">
<path fill-rule="evenodd" clip-rule="evenodd" d="M4.12278 16.9577L4.41955 15.0255L3.75845 15.0097H0.601562L2.79549 0.751555C2.80232 0.708379 2.82442 0.6683 2.85669 0.639787C2.88911 0.611275 2.93044 0.595634 2.97368 0.595634H8.29668C10.064 0.595634 11.2835 0.972483 11.9201 1.7164C12.2186 2.06539 12.4087 2.43018 12.5008 2.83147C12.5973 3.25264 12.5989 3.75575 12.5047 4.3695L12.4979 4.41414V4.80744L12.7964 4.98079C13.0477 5.11749 13.2476 5.2739 13.4008 5.45295C13.6561 5.75144 13.8212 6.13073 13.891 6.58024C13.9632 7.04263 13.9393 7.59299 13.8212 8.21602C13.685 8.93257 13.4648 9.55674 13.1674 10.0674C12.894 10.5379 12.5456 10.9283 12.1318 11.2306C11.7368 11.518 11.2676 11.7362 10.737 11.8758C10.2228 12.013 9.63653 12.0823 8.99354 12.0823H8.5793C8.28317 12.0823 7.99545 12.1916 7.76957 12.3876C7.54306 12.5877 7.39332 12.861 7.34738 13.16L7.31607 13.334L6.79167 16.7397L6.76799 16.8646C6.76163 16.9042 6.75082 16.9239 6.73492 16.9373C6.72078 16.9495 6.70043 16.9577 6.68056 16.9577H4.12278Z" fill="#28356A"/>
<path fill-rule="evenodd" clip-rule="evenodd" d="M13.0774 4.45956C13.0616 4.56367 13.0434 4.67006 13.023 4.77938C12.3211 8.47357 9.91938 9.74977 6.85214 9.74977H5.29039C4.91525 9.74977 4.59908 10.0289 4.54075 10.4082L3.51468 17.0792C3.47669 17.3283 3.66394 17.5526 3.90905 17.5526H6.67904C7.00697 17.5526 7.28562 17.3084 7.33728 16.9768L7.36446 16.8327L7.886 13.4404L7.91954 13.2543C7.97057 12.9216 8.24985 12.6772 8.57778 12.6772H8.99202C11.6757 12.6772 13.7766 11.5605 14.3907 8.32873C14.6471 6.97872 14.5144 5.85143 13.8356 5.05864C13.6302 4.81962 13.3754 4.62118 13.0774 4.45956Z" fill="#298FC2"/>
<path fill-rule="evenodd" clip-rule="evenodd" d="M12.3434 4.15948C12.2361 4.12739 12.1255 4.09839 12.012 4.07215C11.8979 4.04658 11.781 4.02393 11.6607 4.00405C11.2396 3.93432 10.7782 3.90125 10.284 3.90125H6.11183C6.00899 3.90125 5.91139 3.92503 5.82412 3.96804C5.63162 4.06287 5.48872 4.24958 5.45407 4.47817L4.56645 10.2402L4.54102 10.4082C4.59935 10.0289 4.91552 9.7498 5.29066 9.7498H6.85241C9.91965 9.7498 12.3213 8.47295 13.0233 4.77942C13.0443 4.67009 13.0619 4.5637 13.0777 4.45959C12.9001 4.36298 12.7078 4.28037 12.5006 4.20999C12.4495 4.19256 12.3967 4.17578 12.3434 4.15948Z" fill="#22284F"/>
<path fill-rule="evenodd" clip-rule="evenodd" d="M5.45584 4.47819C5.49049 4.2496 5.63339 4.06289 5.82589 3.96872C5.91379 3.92554 6.01076 3.90176 6.1136 3.90176H10.2858C10.78 3.90176 11.2414 3.93499 11.6625 4.00473C11.7828 4.02444 11.8996 4.04725 12.0138 4.07283C12.1273 4.0989 12.2379 4.12806 12.3452 4.16C12.3985 4.17629 12.4512 4.19323 12.5029 4.21001C12.71 4.2804 12.9025 4.36365 13.0801 4.45962C13.2889 3.09446 13.0783 2.16496 12.3582 1.32329C11.5642 0.396562 10.1314 0 8.29783 0H2.97468C2.60017 0 2.28067 0.279093 2.22281 0.659037L0.00567417 15.0638C-0.0380391 15.3488 0.176394 15.6059 0.456795 15.6059H3.74308L5.45584 4.47819Z" fill="#28356A"/>
</svg>
