<svg width="20" height="20" viewBox="0 0 20 20" fill="none" xmlns="http://www.w3.org/2000/svg">
<mask id="mask0_253_26295" style="mask-type:alpha" maskUnits="userSpaceOnUse" x="0" y="0" width="20" height="20">
<rect width="20" height="20" fill="white"/>
</mask>
<g mask="url(#mask0_253_26295)">
<path d="M7.08366 12.2222C7.08366 13.2961 7.95422 14.1667 9.0281 14.1667H10.8337C11.9843 14.1667 12.917 13.2339 12.917 12.0833C12.917 10.9327 11.9843 10 10.8337 10H9.16699C8.0164 10 7.08366 9.06726 7.08366 7.91667C7.08366 6.76608 8.0164 5.83334 9.16699 5.83334H10.9725C12.0464 5.83334 12.917 6.7039 12.917 7.77778M10.0003 4.58334V5.83334M10.0003 14.1667V15.4167M18.3337 10C18.3337 14.6024 14.6027 18.3333 10.0003 18.3333C5.39795 18.3333 1.66699 14.6024 1.66699 10C1.66699 5.39763 5.39795 1.66667 10.0003 1.66667C14.6027 1.66667 18.3337 5.39763 18.3337 10Z" stroke="#00A266" stroke-width="2" stroke-linecap="round" stroke-linejoin="round"/>
</g>
</svg>
