<svg width="16" height="16" viewBox="0 0 16 16" fill="none" xmlns="http://www.w3.org/2000/svg">
<mask id="mask0_253_16700" style="mask-type:alpha" maskUnits="userSpaceOnUse" x="0" y="0" width="16" height="16">
<rect width="16" height="16" fill="white"/>
</mask>
<g mask="url(#mask0_253_16700)">
<path d="M7.52242 2.30223C7.67608 1.99094 7.7529 1.83529 7.8572 1.78556C7.94795 1.7423 8.05338 1.7423 8.14412 1.78556C8.24842 1.83529 8.32525 1.99094 8.47891 2.30223L9.93669 5.25554C9.98206 5.34744 10.0047 5.39339 10.0379 5.42907C10.0672 5.46066 10.1024 5.48625 10.1415 5.50443C10.1857 5.52497 10.2364 5.53238 10.3378 5.5472L13.5986 6.02382C13.942 6.07401 14.1137 6.09911 14.1932 6.18298C14.2623 6.25595 14.2948 6.35622 14.2817 6.45587C14.2665 6.57041 14.1422 6.69147 13.8936 6.93361L11.535 9.23097C11.4614 9.30258 11.4247 9.33839 11.4009 9.38099C11.3799 9.41872 11.3665 9.46016 11.3613 9.50302C11.3554 9.55143 11.3641 9.60202 11.3814 9.70318L11.938 12.9481C11.9967 13.2903 12.026 13.4615 11.9708 13.563C11.9229 13.6514 11.8376 13.7133 11.7387 13.7317C11.6251 13.7527 11.4714 13.6719 11.1641 13.5103L8.2489 11.9772C8.15807 11.9295 8.11266 11.9056 8.06481 11.8962C8.02245 11.8879 7.97888 11.8879 7.93651 11.8962C7.88867 11.9056 7.84325 11.9295 7.75242 11.9772L4.83727 13.5103C4.52993 13.6719 4.37626 13.7527 4.26263 13.7317C4.16377 13.7133 4.07847 13.6514 4.03048 13.563C3.97532 13.4615 4.00467 13.2903 4.06337 12.9481L4.61991 9.70318C4.63726 9.60202 4.64593 9.55143 4.64006 9.50302C4.63487 9.46016 4.62139 9.41872 4.60039 9.38099C4.57667 9.33839 4.5399 9.30258 4.46638 9.23097L2.10769 6.93361C1.85909 6.69147 1.73479 6.57041 1.71967 6.45587C1.70651 6.35622 1.73902 6.25595 1.80815 6.18298C1.88761 6.09911 2.0593 6.07401 2.40268 6.02382L5.66353 5.5472C5.76493 5.53238 5.81564 5.52497 5.8598 5.50443C5.89889 5.48625 5.93409 5.46066 5.96344 5.42907C5.99659 5.39339 6.01927 5.34744 6.06463 5.25554L7.52242 2.30223Z" fill="#FFAA01"/>
</g>
</svg>
