<svg width="20" height="20" viewBox="0 0 20 20" fill="none" xmlns="http://www.w3.org/2000/svg">
<mask id="mask0_253_20977" style="mask-type:alpha" maskUnits="userSpaceOnUse" x="0" y="0" width="20" height="20">
<rect width="20" height="20" fill="white"/>
</mask>
<g mask="url(#mask0_253_20977)">
<path d="M10.3322 2C10.9804 2.00004 11.6064 2.23614 12.0931 2.66417L12.2214 2.785L12.8031 3.36667C12.9627 3.52526 13.1712 3.62538 13.3947 3.65083L13.5072 3.6575H14.3406C15.0216 3.65746 15.6768 3.91798 16.1719 4.38562C16.667 4.85326 16.9643 5.49259 17.0031 6.1725L17.0072 6.32417V7.1575C17.0072 7.3825 17.0839 7.60167 17.2222 7.77667L17.2972 7.86L17.8781 8.44167C18.3595 8.92037 18.6402 9.56468 18.663 10.2432C18.6858 10.9218 18.4488 11.5834 18.0006 12.0933L17.8797 12.2217L17.2981 12.8033C17.1395 12.963 17.0394 13.1714 17.0139 13.395L17.0072 13.5075V14.3408C17.0073 15.0218 16.7468 15.6771 16.2791 16.1721C15.8115 16.6672 15.1722 16.9646 14.4922 17.0033L14.3406 17.0075H13.5072C13.2826 17.0076 13.0645 17.0833 12.8881 17.2225L12.8047 17.2975L12.2231 17.8783C11.7444 18.3598 11.1001 18.6405 10.4215 18.6632C9.74298 18.686 9.08131 18.4491 8.57141 18.0008L8.44308 17.88L7.86141 17.2983C7.70178 17.1397 7.49332 17.0396 7.26974 17.0142L7.15724 17.0075H6.32391C5.6429 17.0075 4.98767 16.747 4.4926 16.2794C3.99754 15.8117 3.70014 15.1724 3.66141 14.4925L3.65724 14.3408V13.5075C3.65717 13.2828 3.58143 13.0647 3.44224 12.8883L3.36724 12.805L2.78641 12.2233C2.30498 11.7446 2.02426 11.1003 2.0015 10.4218C1.97874 9.74324 2.21564 9.08156 2.66391 8.57167L2.78474 8.44333L3.36641 7.86167C3.525 7.70203 3.62512 7.49358 3.65058 7.27L3.65724 7.1575V6.32417L3.66141 6.1725C3.69862 5.5187 3.9751 4.90146 4.43815 4.43841C4.9012 3.97536 5.51845 3.69888 6.17224 3.66167L6.32391 3.6575H7.15724C7.38193 3.65743 7.60004 3.58169 7.77641 3.4425L7.85974 3.3675L8.44141 2.78667C8.68919 2.53741 8.9838 2.33959 9.3083 2.20458C9.6328 2.06958 9.98078 2.00005 10.3322 2ZM13.4131 8.06833C13.2568 7.91211 13.0449 7.82435 12.8239 7.82435C12.6029 7.82435 12.391 7.91211 12.2347 8.06833L9.49058 10.8117L8.41308 9.735L8.33474 9.66583C8.16725 9.53632 7.95674 9.47542 7.74597 9.4955C7.5352 9.51558 7.33998 9.61513 7.19995 9.77394C7.05992 9.93274 6.98559 10.1389 6.99205 10.3505C6.99852 10.5621 7.08529 10.7634 7.23474 10.9133L8.90141 12.58L8.97974 12.6492C9.14008 12.7735 9.34029 12.8351 9.54281 12.8224C9.74533 12.8097 9.93625 12.7235 10.0797 12.58L13.4131 9.24667L13.4822 9.16833C13.6066 9.008 13.6682 8.80779 13.6555 8.60527C13.6428 8.40274 13.5566 8.21183 13.4131 8.06833Z" fill="#00A266"/>
</g>
</svg>
