<svg width="40" height="40" viewBox="0 0 40 40" fill="none" xmlns="http://www.w3.org/2000/svg">
<mask id="mask0_253_18798" style="mask-type:alpha" maskUnits="userSpaceOnUse" x="0" y="0" width="40" height="40">
<rect width="40" height="40" fill="white"/>
</mask>
<g mask="url(#mask0_253_18798)">
<path fill-rule="evenodd" clip-rule="evenodd" d="M20.197 0.0754557C22.3203 0.526623 23.7333 2.57625 23.3955 4.71491C23.1838 6.05519 22.1645 7.3711 20.9613 7.85733C20.0528 8.22451 18.7258 8.20561 17.9057 7.81397C16.2543 7.02535 15.3897 5.57619 15.5023 3.78601C15.6507 1.42885 17.9636 -0.399231 20.197 0.0754557ZM28.6064 2.62927C29.3479 2.88021 29.8391 3.19478 30.3367 3.7373C31.0768 4.54408 31.272 5.06917 31.2782 6.26969C31.283 7.19187 31.2574 7.32259 30.9456 7.96905C30.2848 9.33925 29.1113 10.0781 27.5768 10.0903C26.863 10.096 26.6638 10.0537 26.0839 9.77372C25.7158 9.59607 25.2136 9.24465 24.9681 8.99287C22.6902 6.65755 24.1975 2.66088 27.408 2.52354C27.8762 2.50349 28.3612 2.54633 28.6064 2.62927ZM12.1788 4.71659C12.8133 5.06318 13.1429 5.69631 13.0845 6.45616C13.037 7.0727 12.8169 7.44985 12.2919 7.81429C10.7042 8.91633 8.76367 6.93747 9.84434 5.31833C10.393 4.49631 11.3322 4.25419 12.1788 4.71659ZM34.431 8.92504C37.5855 9.83609 38.0038 14.0452 35.0929 15.5861C34.3424 15.9834 33.1604 16.0364 32.3137 15.7108C31.4688 15.386 30.6306 14.5312 30.312 13.6696C29.9889 12.7957 30.0444 11.6047 30.4457 10.8056C31.194 9.31468 32.9352 8.49309 34.431 8.92504ZM6.16103 10.5614C6.65947 10.796 6.97319 11.1284 7.1857 11.6473C7.41108 12.1973 7.3841 12.6568 7.09097 13.2565C6.43501 14.599 4.74142 14.7626 3.79861 13.5746C3.53801 13.2464 3.48458 13.077 3.454 12.4832C3.42178 11.8556 3.44895 11.7323 3.70779 11.3308C4.04448 10.8087 4.81997 10.3617 5.38327 10.3653C5.58456 10.3665 5.93452 10.4548 6.16103 10.5614ZM36.3434 17.3996C37.3828 17.6148 38.3458 18.3976 38.7796 19.3798C38.9328 19.7267 38.9955 20.0901 38.9996 20.6545C39.0047 21.3435 38.9617 21.5343 38.6621 22.1552C38.0466 23.4306 36.9274 24.0834 35.5172 23.9894C34.3106 23.9091 33.3377 23.2454 32.8051 22.1394C32.4179 21.3352 32.4017 20.1443 32.7667 19.3118C33.35 17.9816 34.9704 17.1152 36.3434 17.3996ZM4.14497 18.7256C5.47151 19.3998 5.76299 21.0655 4.75027 22.1858C3.90713 23.1187 2.63423 23.1677 1.71428 22.303C0.582638 21.2393 0.831909 19.4235 2.2054 18.7256C2.52993 18.5606 2.92427 18.4476 3.17518 18.4476C3.4261 18.4476 3.82044 18.5606 4.14497 18.7256ZM34.9353 26.2347C35.3946 26.4783 35.7181 26.7454 35.9772 27.0951C36.4399 27.7194 36.5858 28.1937 36.5858 29.0739C36.5858 30.2498 35.9491 31.2551 34.8363 31.8361C34.2989 32.1166 33.2313 32.1635 32.5595 31.936C31.7773 31.6709 30.8994 30.7673 30.6748 29.9958C30.3371 28.8362 30.5479 27.8086 31.2985 26.9573C31.9569 26.2104 32.4342 25.9813 33.4455 25.9262C34.2218 25.884 34.3076 25.9017 34.9353 26.2347ZM6.38981 26.905C7.21524 27.3244 7.65396 28.046 7.65396 28.9841C7.65396 30.2559 6.61468 31.3621 5.41983 31.3621C3.87696 31.3621 2.7166 29.8526 3.12267 28.3736C3.51546 26.9431 5.08036 26.2395 6.38981 26.905ZM28.5933 32.3563C29.1461 32.5572 29.6834 33.0238 30.0453 33.6173C30.2879 34.0153 30.3597 34.268 30.3912 34.8357C30.4607 36.0894 29.971 37.0419 28.972 37.5964C26.76 38.8241 24.1905 36.7221 24.8927 34.259C25.3348 32.7081 27.0852 31.8081 28.5933 32.3563ZM11.7865 32.5873C11.9359 32.6129 12.3022 32.7847 12.6006 32.9692C14.299 34.0192 14.0766 36.6218 12.2208 37.4125C11.6949 37.6366 10.8725 37.592 10.2721 37.3069C9.37597 36.8814 8.88948 36.0681 8.88948 34.9952C8.88948 33.521 10.3153 32.336 11.7865 32.5873ZM19.9756 34.6233C20.5595 34.7388 20.9181 34.9455 21.3621 35.4221C21.9459 36.049 22.1082 36.4562 22.1077 37.2944C22.1074 37.8416 22.0508 38.1404 21.886 38.4634C21.3801 39.4552 20.492 40.0137 19.4429 39.9997C17.939 39.9797 16.8176 38.8228 16.8207 37.2944C16.8241 35.5712 18.3286 34.2974 19.9756 34.6233Z" fill="url(#paint0_linear_253_18798)"/>
</g>
<defs>
<linearGradient id="paint0_linear_253_18798" x1="39" y1="20" x2="1" y2="20" gradientUnits="userSpaceOnUse">
<stop offset="0.512199" stop-color="#FFAA01"/>
<stop offset="1" stop-color="#FFAA01" stop-opacity="0"/>
</linearGradient>
</defs>
</svg>
