<svg width="83" height="80" viewBox="0 0 83 80" fill="none" xmlns="http://www.w3.org/2000/svg">
<path fill-rule="evenodd" clip-rule="evenodd" d="M37.9192 0.0954617C35.7828 0.410087 32.227 1.26886 30.4167 1.90767C20.8271 5.29133 13.0136 13.1125 9.62299 22.7217C9.21704 23.8724 8.94784 24.8136 9.02506 24.8136C9.10228 24.8136 10.0732 23.9544 11.1825 22.9044C13.9783 20.2578 16.6703 18.7313 20.0398 17.8816C20.7946 17.6911 21.2981 17.3303 22.0464 16.4431C22.5955 15.7916 23.8273 14.6115 24.7833 13.8206C32.9571 7.05954 43.9411 5.73218 53.4895 10.3516C55.2061 11.1822 56.0472 11.7818 57.4343 13.1632C60.5524 16.2688 61.9627 19.394 62.0055 23.2924C62.0284 25.3955 62.053 25.4907 62.6687 25.8543C63.0203 26.0621 64.8036 26.5496 66.6319 26.9378C68.4598 27.3259 71.1635 27.9415 72.6401 28.3056C74.1166 28.6699 75.3754 28.9169 75.4378 28.8548C75.6128 28.6797 74.886 25.3747 74.2338 23.3792C73.3279 20.6073 70.9682 16.0625 69.2689 13.8161C64.16 7.06312 56.8861 2.37363 48.8555 0.655864C46.5955 0.172689 39.7708 -0.177086 37.9192 0.0954617ZM10.6866 48.0639C13.9864 55.8033 24.1242 66.4792 38.9754 77.854L41.7772 80L44.8687 77.6537C57.1178 68.3572 67.2781 58.2069 71.3794 51.1685C72.7228 48.8633 72.745 48.6243 71.5693 49.1356C71.0148 49.3769 69.9839 49.5306 68.8682 49.5387C67.3008 49.55 66.8566 49.4498 65.4871 48.7756C64.62 48.3488 63.5226 47.5702 63.0486 47.0454L62.1867 46.0915H55.3505H48.5146L46.0858 47.6146C41.4329 50.5326 35.8163 53.0281 30.5078 54.5357C25.7877 55.8764 26.4466 55.9948 23.7331 53.3171C22.4373 52.0388 21.0566 50.5739 20.665 50.0621L19.9528 49.1316L18.7053 49.4309C16.1959 50.0329 12.8355 48.9609 11.1839 47.0315C10.7416 46.5144 10.2594 46.0915 10.1126 46.0915C9.96271 46.0915 10.214 46.955 10.6866 48.0639ZM59.0775 49.1203C59.0775 49.6989 55.8975 54.4592 55.5112 54.4592C55.4222 54.4592 54.9415 54.0415 54.443 53.5311L53.5366 52.603L54.4542 51.8628C54.9589 51.4559 55.7483 50.6404 56.2086 50.0508C56.9626 49.0845 57.1457 48.9776 58.0614 48.9695C58.6201 48.9645 59.0775 49.0324 59.0775 49.1203ZM51.3606 58.6031C51.3137 58.7437 50.4552 59.4953 49.4527 60.2735L47.63 61.6884L47.0467 61.2296C46.7258 60.9771 45.9122 60.2752 45.2385 59.6694L44.0137 58.5682L46.3457 57.2628L48.6776 55.9577L50.0617 57.1529C50.8229 57.8101 51.4074 58.4628 51.3606 58.6031ZM40.5337 62.9942C42.9398 65.1148 43.0084 64.8172 39.7201 66.5156L37.6622 67.5785L35.3185 65.5351C34.0294 64.4112 33.0652 63.4042 33.1757 63.2971C33.3638 63.1149 37.9883 61.1918 38.3017 61.1653C38.3806 61.1588 39.385 61.9817 40.5337 62.9942Z" fill="#212B46"/>
<rect x="24.6665" y="30" width="36" height="13.3333" fill="#212B46"/>
<path fill-rule="evenodd" clip-rule="evenodd" d="M32.2 17.6843C31.7294 18.234 31.3445 18.7583 31.3445 18.8496C31.3445 18.9409 29.1658 19.0734 26.5032 19.1439C21.1469 19.2859 19.9609 19.508 17.0922 20.9059C14.908 21.9703 11.9793 24.3254 10.3058 26.3636C8.75415 28.253 8.52344 28.3998 7.10571 28.3998C3.34957 28.3998 1.63659 29.9318 1.29208 33.5997C1.21486 34.4216 1.06233 35.0939 0.953311 35.0939C0.844292 35.0939 0.590868 35.4114 0.390283 35.7992C-0.115365 36.7768 -0.135687 42.9105 0.364462 43.5953C0.676218 44.0225 1.0738 44.0653 5.3595 44.1329L10.0155 44.2068L9.88977 42.1916C9.77788 40.3978 9.82928 40.0342 10.3579 38.8795C11.6226 36.1172 13.7446 34.6119 16.6253 34.4338C20.8055 34.1756 24.2308 37.2542 24.2748 41.3099C24.2841 42.1646 24.209 43.1599 24.1079 43.5214L23.9241 44.1789H42.946H61.9681L61.785 43.2823C60.8268 38.5873 64.2382 34.3767 68.9999 34.3767C70.8087 34.3767 72.3096 34.9866 73.7577 36.3099C75.3902 37.8017 76.1162 39.4066 76.1282 41.549C76.133 42.4037 76.0572 43.344 75.9596 43.6385C75.7887 44.1545 75.8243 44.169 76.9332 44.0397C78.9407 43.8057 80.4517 43.4535 81.0046 43.0911C82.3196 42.2297 82.8003 39.5176 81.8632 38.25C81.5901 37.8808 81.232 36.9759 81.0673 36.2391C80.6152 34.2196 79.689 32.6855 78.539 32.0519C77.3217 31.3813 72.7448 30.1278 67.0404 28.9028C62.7413 27.9795 62.6612 27.9505 60.1072 26.4126C55.2223 23.4705 50.1099 20.733 48.6633 20.2853C47.3859 19.8896 45.7291 19.6761 40.0398 19.1733L38.5742 19.044L38.4179 17.8644L38.2613 16.685H35.6582H33.0554L32.2 17.6843ZM34.2135 24.5745V28.1607H26.4435H18.6735V25.1806C18.6735 21.8027 18.5711 21.9803 20.8722 21.3611C21.8037 21.1103 23.7416 21.0156 28.1768 21.0042L34.2135 20.9884V24.5745ZM44.6128 21.3515C47.9931 21.747 48.7706 22.0267 53.0393 24.384C54.8016 25.3573 55.1956 25.6698 54.9828 25.926C54.793 26.1546 54.786 26.5244 54.9586 27.2041L55.2013 28.1607H45.7833H36.3652V24.5745V20.9884H38.9367C40.351 20.9884 42.9053 21.1519 44.6128 21.3515ZM17.1599 28.0804C17.107 28.1332 15.7854 28.1459 14.2228 28.1088L11.3816 28.0412L12.6939 26.6428C13.4157 25.8734 14.7067 24.7194 15.5628 24.0777L17.1195 22.9115L17.1876 25.4479C17.2251 26.8431 17.2127 28.0278 17.1599 28.0804ZM36.3652 30.9101C36.3652 31.1606 36.1127 31.2687 35.5284 31.2687H34.6916V33.5399C34.6916 35.7358 34.6737 35.8112 34.1537 35.8114C33.6347 35.8114 33.6158 35.7339 33.6158 33.5999V31.3882L32.7192 31.3141C32.1328 31.2656 31.8227 31.1207 31.8227 30.8957C31.8227 30.6203 32.2767 30.5515 34.0939 30.5515C35.9535 30.5515 36.3652 30.6165 36.3652 30.9101ZM40.8232 32.4043C42.4291 35.9271 42.3973 35.8112 41.7602 35.8112C41.4035 35.8112 41.1574 35.6388 41.0774 35.333C40.9686 34.9165 40.7513 34.8548 39.3921 34.8548C38.0418 34.8548 37.8113 34.9192 37.6801 35.333C37.5395 35.776 36.6076 36.0342 36.6014 35.6318C36.5999 35.5331 37.1017 34.3497 37.7164 33.002C38.6806 30.8878 38.9125 30.5515 39.4062 30.5515C39.888 30.5515 40.1122 30.8446 40.8232 32.4043ZM45.1278 31.52L45.7688 32.4882L46.3863 31.5216C46.8135 30.8532 47.1736 30.5543 47.5539 30.5531C48.1519 30.5512 48.1667 30.5051 47.0476 32.1463L46.3736 33.1347L47.2269 34.3222C48.2155 35.6983 48.2442 35.8112 47.6051 35.8112C47.3142 35.8112 46.8793 35.4317 46.4822 34.8317L45.834 33.8524L45.1704 34.6524C44.8053 35.0925 44.5038 35.5331 44.5002 35.6318C44.4966 35.7306 44.2207 35.8112 43.8872 35.8112H43.2804L44.2219 34.425L45.1632 33.0388L44.3563 31.9744C43.4148 30.7324 43.3711 30.5515 44.0123 30.5515C44.3023 30.5515 44.7364 30.9282 45.1278 31.52ZM50.4707 33.1813C50.4707 35.6517 50.4418 35.8112 49.9925 35.8112C49.5433 35.8112 49.5144 35.6517 49.5144 33.1813C49.5144 30.7109 49.5433 30.5515 49.9925 30.5515C50.4418 30.5515 50.4707 30.7109 50.4707 33.1813ZM28.0883 31.3285C27.9912 31.4929 27.6618 31.9606 27.3565 32.3677L26.8011 33.1082L27.5203 34.101C28.1223 34.9321 28.171 35.0932 27.8196 35.0889C27.2848 35.0822 25.9935 33.2882 26.2323 32.8834C26.7849 31.9481 27.6211 31.0296 27.9205 31.0296C28.1306 31.0296 28.1961 31.146 28.0883 31.3285ZM29.9101 31.1745C29.9101 31.2541 29.5911 31.7222 29.2012 32.2145L28.4921 33.1096L29.2218 34.1018C29.8493 34.9553 29.89 35.0927 29.5125 35.0848C28.9789 35.0738 27.678 33.271 27.9143 32.87C28.4481 31.9644 29.294 31.0296 29.5799 31.0296C29.7614 31.0296 29.9101 31.0949 29.9101 31.1745ZM53.9913 32.0849L54.7351 33.1399L54.0167 34.1171C53.6215 34.6543 53.133 35.0939 52.9313 35.0939C52.6083 35.0939 52.6111 35.0291 52.9554 34.556C53.8849 33.2786 53.9146 33.0374 53.2488 32.1643C52.543 31.239 52.4852 31.0296 52.9349 31.0296C53.107 31.0296 53.5823 31.5044 53.9913 32.0849ZM55.6845 32.0772L56.4366 33.1246L55.7235 34.1094C55.3311 34.6509 54.8362 35.0939 54.6239 35.0939C54.2699 35.0939 54.2701 35.0492 54.629 34.556C55.5585 33.2786 55.5881 33.0374 54.9223 32.1643C54.2146 31.2367 54.1585 31.0296 54.6139 31.0296C54.7889 31.0296 55.2706 31.5011 55.6845 32.0772ZM38.9209 32.5894C38.3502 33.7862 38.3978 33.8985 39.4763 33.8985H40.4359L40.0615 33.002C39.5181 31.7002 39.3703 31.6467 38.9209 32.5894ZM14.4879 36.1342C12.2588 37.1722 11.0213 39.1393 11.0254 41.6379C11.034 47.135 17.5237 49.8333 21.4039 45.953C24.3544 43.0026 23.6059 38.1773 19.8971 36.2398C18.2173 35.3622 16.2289 35.3234 14.4879 36.1342ZM66.3641 36.0194C62.6366 37.7125 61.5729 42.6502 64.2869 45.6606C67.5362 49.2652 73.4056 47.9572 74.7511 43.3289C75.6001 40.4086 74.1785 37.3202 71.3899 36.0263C70.1154 35.4351 67.6579 35.4315 66.3641 36.0194ZM18.5018 38.053C21.0585 39.1468 21.714 42.3815 19.7725 44.323C16.4548 47.6407 11.4387 43.4743 13.8976 39.4432C14.4224 38.5828 15.9853 37.7376 17.0673 37.729C17.4331 37.7262 18.0786 37.872 18.5018 38.053ZM28.7147 38.7996V39.8755H27.6388H26.563V38.7996V37.7238H27.6388H28.7147V38.7996ZM33.4962 38.7996V39.8755H32.3008H31.1055V38.7996V37.7238H32.3008H33.4962V38.7996ZM38.0387 38.7996V39.8755H36.9628H35.887V38.7996V37.7238H36.9628H38.0387V38.7996ZM42.8202 38.7996V39.8755H41.6248H40.4295V38.7996V37.7238H41.6248H42.8202V38.7996ZM47.3627 38.7996V39.8755H46.2868H45.211V38.7996V37.7238H46.2868H47.3627V38.7996ZM52.1442 38.7996V39.8755H50.9488H49.7535V38.7996V37.7238H50.9488H52.1442V38.7996ZM56.8361 38.7996V39.8755H55.6857H54.535V38.7996V37.7238H55.6857H56.8361V38.7996ZM71.1497 38.5433C72.3505 39.4592 72.7787 40.4167 72.6549 41.9088C72.4749 44.0794 71.0084 45.4584 68.8796 45.4584C66.7509 45.4584 65.2844 44.0794 65.1043 41.9088C65.0345 41.0665 65.1247 40.4332 65.3865 39.9269C65.7993 39.1283 67.0249 38.0922 67.8038 37.8832C68.8196 37.6107 70.3129 37.9052 71.1497 38.5433ZM31.1055 41.1904V42.2662H29.9101H28.7147V41.1904V40.1145H29.9101H31.1055V41.1904ZM35.6479 41.1904V42.2662H34.5721H33.4962V41.1904V40.1145H34.5721H35.6479V41.1904ZM40.4295 41.1904V42.2662H39.2341H38.0387V41.1904V40.1145H39.2341H40.4295V41.1904ZM45.211 41.1904V42.2662H44.0156H42.8202V41.1904V40.1145H44.0156H45.211V41.1904ZM49.7535 41.1904V42.2662H48.6776H47.6018V41.1904V40.1145H48.6776H49.7535V41.1904ZM54.535 41.1904V42.2662H53.3396H52.1442V41.1904V40.1145H53.3396H54.535V41.1904ZM59.0775 41.1904V42.2662H58.0016H56.9258V41.1904V40.1145H58.0016H59.0775V41.1904Z" fill="#FFAA01"/>
</svg>
