<svg width="20" height="20" viewBox="0 0 20 20" fill="none" xmlns="http://www.w3.org/2000/svg">
<mask id="mask0_253_28397" style="mask-type:alpha" maskUnits="userSpaceOnUse" x="0" y="0" width="20" height="20">
<rect width="20" height="20" fill="white"/>
</mask>
<g mask="url(#mask0_253_28397)">
<path d="M3 3.83333C3 3.61232 3.0878 3.40036 3.24408 3.24408C3.40036 3.0878 3.61232 3 3.83333 3H15.5C15.721 3 15.933 3.0878 16.0893 3.24408C16.2455 3.40036 16.3333 3.61232 16.3333 3.83333V15.5C16.3333 15.721 16.2455 15.933 16.0893 16.0893C15.933 16.2455 15.721 16.3333 15.5 16.3333H3.83333C3.61232 16.3333 3.40036 16.2455 3.24408 16.0893C3.0878 15.933 3 15.721 3 15.5V3.83333Z" stroke="#ffffff" stroke-width="2" stroke-linecap="round" stroke-linejoin="round"/>
<path d="M9.66699 5.5V9.66667L12.167 12.1667" stroke="#ffffff" stroke-width="2" stroke-linecap="round" stroke-linejoin="round"/>
<path d="M3 9.66667H3.83333" stroke="#ffffff" stroke-width="2" stroke-linecap="round" stroke-linejoin="round"/>
<path d="M15.5 9.66667H16.3333" stroke="#ffffff" stroke-width="2" stroke-linecap="round" stroke-linejoin="round"/>
<path d="M9.66699 15.5V16.3333" stroke="#ffffff" stroke-width="2" stroke-linecap="round" stroke-linejoin="round"/>
</g>
</svg>
