<svg width="24" height="24" viewBox="0 0 24 24" fill="none" xmlns="http://www.w3.org/2000/svg">
<mask id="mask0_311_3275" style="mask-type:alpha" maskUnits="userSpaceOnUse" x="0" y="0" width="24" height="24">
<rect width="24" height="24" fill="white"/>
</mask>
<g mask="url(#mask0_311_3275)">
<path d="M8 20L18.5 9.49997C18.7626 9.23732 18.971 8.92552 19.1131 8.58236C19.2553 8.2392 19.3284 7.8714 19.3284 7.49997C19.3284 7.12853 19.2553 6.76074 19.1131 6.41757C18.971 6.07441 18.7626 5.76261 18.5 5.49997C18.2374 5.23732 17.9256 5.02898 17.5824 4.88684C17.2392 4.7447 16.8714 4.67154 16.5 4.67154C16.1286 4.67154 15.7608 4.7447 15.4176 4.88684C15.0744 5.02898 14.7626 5.23732 14.5 5.49997L4 16V20H8Z" stroke="#ffffff" stroke-width="2" stroke-linecap="round" stroke-linejoin="round"/>
<path d="M13.5 6.5L17.5 10.5" stroke="#ffffff" stroke-width="2" stroke-linecap="round" stroke-linejoin="round"/>
<path d="M16 18H20M18 16V20" stroke="#ffffff" stroke-width="2" stroke-linecap="round" stroke-linejoin="round"/>
</g>
</svg>
