<svg width="124" height="120" viewBox="0 0 124 120" fill="none" xmlns="http://www.w3.org/2000/svg">
<path fill-rule="evenodd" clip-rule="evenodd" d="M56.8787 0.143193C53.6741 0.61513 48.3404 1.90328 45.625 2.8615C31.2406 7.93699 19.5203 19.6687 14.4344 34.0826C13.8255 35.8086 13.4217 37.2204 13.5375 37.2204C13.6534 37.2204 15.1097 35.9316 16.7737 34.3565C20.9673 30.3867 25.0053 28.0969 30.0597 26.8224C31.1918 26.5366 31.9471 25.9954 33.0695 24.6646C33.8933 23.6874 35.7409 21.9173 37.175 20.731C49.4357 10.5893 65.9115 8.59827 80.2343 15.5274C82.8091 16.7733 84.0707 17.6727 86.1514 19.7448C90.8285 24.4032 92.944 29.091 93.0082 34.9386C93.0426 38.0933 93.0795 38.236 94.003 38.7815C94.5305 39.0931 97.2054 39.8244 99.9477 40.4067C102.69 40.9888 106.745 41.9122 108.96 42.4584C111.175 43.0049 113.063 43.3754 113.157 43.2821C113.419 43.0196 112.329 38.0621 111.351 35.0688C109.992 30.911 106.452 24.0937 103.903 20.7241C96.24 10.5947 85.3291 3.56045 73.2832 0.983796C69.8932 0.259034 59.6562 -0.265629 56.8787 0.143193ZM16.0299 72.0958C20.9795 83.7049 36.1863 99.7189 58.4631 116.781L62.6657 120L67.303 116.481C85.6766 102.536 100.917 87.3104 107.069 76.7528C109.084 73.295 109.118 72.9364 107.354 73.7035C106.522 74.0653 104.976 74.2959 103.302 74.3081C100.951 74.325 100.285 74.1747 98.2307 73.1634C96.93 72.5233 95.2839 71.3553 94.5728 70.5681L93.28 69.1372H83.0257H72.7718L69.1287 71.422C62.1493 75.7989 53.7243 79.5421 45.7616 81.8035C38.6815 83.8146 39.6698 83.9921 35.5996 79.9757C33.6559 78.0581 31.5849 75.8609 30.9974 75.0931L29.9291 73.6974L28.0579 74.1464C24.2938 75.0493 19.2532 73.4413 16.7758 70.5473C16.1124 69.7716 15.3891 69.1372 15.1689 69.1372C14.944 69.1372 15.3209 70.4325 16.0299 72.0958ZM88.6162 73.6805C88.6162 74.5484 83.8462 81.6888 83.2667 81.6888C83.1333 81.6888 82.4121 81.0623 81.6644 80.2966L80.3049 78.9045L81.6813 77.7942C82.4383 77.1838 83.6225 75.9606 84.3128 75.0762C85.4439 73.6267 85.7186 73.4664 87.0921 73.4542C87.9302 73.4467 88.6162 73.5486 88.6162 73.6805ZM77.0408 87.9046C76.9705 88.1155 75.6827 89.243 74.1791 90.4103L71.445 92.5326L70.5699 91.8444C70.0887 91.4657 68.8683 90.4128 67.8577 89.5041L66.0205 87.8523L69.5185 85.8942L73.0164 83.9366L75.0924 85.7293C76.2343 86.7151 77.1111 87.6941 77.0408 87.9046ZM60.8005 94.4913C64.4096 97.6723 64.5126 97.2258 59.5802 99.7734L56.4932 101.368L52.9777 98.3027C51.0441 96.6168 49.5978 95.1063 49.7634 94.9457C50.0457 94.6724 56.9824 91.7877 57.4525 91.7479C57.5709 91.7382 59.0774 92.9726 60.8005 94.4913Z" fill="#ffffff"/>
<rect x="37" y="45" width="54" height="20" fill="#212B46"/>
<path fill-rule="evenodd" clip-rule="evenodd" d="M48.2999 26.5265C47.5942 27.351 47.0168 28.1374 47.0168 28.2744C47.0168 28.4114 43.7487 28.6101 39.7548 28.7159C31.7204 28.9289 29.9413 29.262 25.6383 31.3589C22.362 32.9554 17.9689 36.4882 15.4586 39.5453C13.1312 42.3795 12.7852 42.5997 10.6586 42.5997C5.02436 42.5997 2.45489 44.8977 1.93812 50.3996C1.82229 51.6325 1.5935 52.6409 1.42997 52.6409C1.26644 52.6409 0.886302 53.1172 0.585424 53.6988C-0.173048 55.1652 -0.203531 64.3658 0.546693 65.3929C1.01433 66.0338 1.61071 66.098 8.03925 66.1994L15.0233 66.3103L14.8347 63.2875C14.6668 60.5968 14.7439 60.0513 15.5368 58.3192C17.4339 54.1758 20.617 51.9179 24.9379 51.6508C31.2083 51.2635 36.3462 55.8814 36.4122 61.9649C36.4262 63.247 36.3136 64.7399 36.1619 65.2821L35.8861 66.2683H64.419H92.9522L92.6775 64.9235C91.2402 57.881 96.3573 51.5651 103.5 51.5651C106.213 51.5651 108.464 52.4799 110.637 54.4648C113.085 56.7026 114.174 59.11 114.192 62.3235C114.199 63.6056 114.086 65.016 113.939 65.4578C113.683 66.2317 113.736 66.2536 115.4 66.0596C118.411 65.7085 120.677 65.1803 121.507 64.6366C123.479 63.3445 124.201 59.2764 122.795 57.375C122.385 56.8213 121.848 55.4639 121.601 54.3587C120.923 51.3295 119.534 49.0282 117.809 48.0779C115.982 47.072 109.117 45.1917 100.561 43.3542C94.112 41.9692 93.9918 41.9258 90.1608 39.6189C82.8335 35.2057 75.1649 31.0996 72.9949 30.4279C71.0788 29.8344 68.5936 29.5142 60.0596 28.76L57.8613 28.566L57.6268 26.7966L57.3919 25.0275H53.4873H49.5831L48.2999 26.5265ZM51.3202 36.8618V42.2411H39.6652H28.0102V37.7709C28.0102 32.704 27.8567 32.9705 31.3084 32.0417C32.7055 31.6655 35.6125 31.5235 42.2651 31.5063L51.3202 31.4826V36.8618ZM66.9192 32.0273C71.9897 32.6205 73.1559 33.0401 79.559 36.576C82.2024 38.0359 82.7933 38.5047 82.4742 38.8891C82.1894 39.2319 82.179 39.7867 82.438 40.8062L82.802 42.2411H68.675H54.5477V36.8618V31.4826H58.405C60.5266 31.4826 64.358 31.7279 66.9192 32.0273ZM25.7398 42.1206C25.6605 42.1998 23.6781 42.2188 21.3342 42.1632L17.0724 42.0618L19.0409 39.9642C20.1235 38.8102 22.06 37.0791 23.3442 36.1166L25.6792 34.3673L25.7814 38.1719C25.8377 40.2647 25.819 42.0417 25.7398 42.1206ZM54.5477 46.3651C54.5477 46.741 54.169 46.9031 53.2926 46.9031H52.0374V50.3099C52.0374 53.6038 52.0105 53.7168 51.2305 53.7171C50.452 53.7171 50.4236 53.6009 50.4236 50.3999V47.0824L49.0788 46.9712C48.1992 46.8984 47.734 46.6811 47.734 46.3436C47.734 45.9305 48.415 45.8272 51.1409 45.8272C53.9302 45.8272 54.5477 45.9248 54.5477 46.3651ZM61.2348 48.6065C63.6436 53.8907 63.596 53.7168 62.6402 53.7168C62.1052 53.7168 61.7362 53.4582 61.616 52.9995C61.4529 52.3748 61.1269 52.2823 59.0882 52.2823C57.0627 52.2823 56.717 52.3788 56.5201 52.9995C56.3092 53.664 54.9114 54.0513 54.902 53.4478C54.8999 53.2997 55.6526 51.5245 56.5746 49.503C58.0209 46.3318 58.3688 45.8272 59.1093 45.8272C59.8319 45.8272 60.1683 46.2669 61.2348 48.6065ZM67.6917 47.28L68.6531 48.7324L69.5795 47.2825C70.2203 46.2798 70.7604 45.8315 71.3309 45.8297C72.2278 45.8269 72.2501 45.7576 70.5714 48.2195L69.5604 49.7021L70.8403 51.4833C72.3232 53.5475 72.3662 53.7168 71.4077 53.7168C70.9712 53.7168 70.3189 53.1476 69.7233 52.2475L68.7511 50.7786L67.7555 51.9785C67.2079 52.6388 66.7557 53.2997 66.7503 53.4478C66.7449 53.5959 66.3311 53.7168 65.8308 53.7168H64.9207L66.3329 51.6375L67.7448 49.5582L66.5344 47.9617C65.1222 46.0987 65.0566 45.8272 66.0184 45.8272C66.4534 45.8272 67.1046 46.3924 67.6917 47.28ZM75.706 49.772C75.706 53.4776 75.6626 53.7168 74.9888 53.7168C74.315 53.7168 74.2716 53.4776 74.2716 49.772C74.2716 46.0664 74.315 45.8272 74.9888 45.8272C75.6626 45.8272 75.706 46.0664 75.706 49.772ZM42.1325 46.9927C41.9869 47.2394 41.4927 47.9409 41.0347 48.5516L40.2017 49.6622L41.2804 51.1516C42.1834 52.3981 42.2565 52.6398 41.7294 52.6334C40.9272 52.6233 38.9903 49.9323 39.3485 49.3251C40.1773 47.9222 41.4317 46.5444 41.8807 46.5444C42.1959 46.5444 42.2942 46.7191 42.1325 46.9927ZM44.8651 46.7618C44.8651 46.8812 44.3867 47.5834 43.8018 48.3217L42.7382 49.6644L43.8327 51.1527C44.774 52.4329 44.835 52.6391 44.2687 52.6273C43.4683 52.6108 41.5171 49.9065 41.8714 49.3051C42.6722 47.9466 43.9409 46.5444 44.3699 46.5444C44.642 46.5444 44.8651 46.6423 44.8651 46.7618ZM80.987 48.1274L82.1026 49.7099L81.025 51.1756C80.4322 51.9814 79.6996 52.6409 79.3969 52.6409C78.9124 52.6409 78.9167 52.5437 79.4331 51.834C80.8274 49.9179 80.8719 49.5561 79.8731 48.2464C78.8145 46.8586 78.7277 46.5444 79.4023 46.5444C79.6605 46.5444 80.3734 47.2567 80.987 48.1274ZM83.5267 48.1159L84.6549 49.687L83.5852 51.1641C82.9967 51.9764 82.2544 52.6409 81.9359 52.6409C81.4048 52.6409 81.4052 52.5738 81.9434 51.834C83.3377 49.9179 83.3822 49.5561 82.3835 48.2464C81.322 46.855 81.2377 46.5444 81.9208 46.5444C82.1833 46.5444 82.906 47.2516 83.5267 48.1159ZM58.3813 48.884C57.5253 50.6793 57.5967 50.8478 59.2144 50.8478H60.6539L60.0923 49.503C59.2771 47.5504 59.0555 47.47 58.3813 48.884ZM21.7319 54.2012C18.3882 55.7584 16.532 58.709 16.5381 62.4569C16.551 70.7026 26.2856 74.7499 32.1059 68.9296C36.5316 64.5039 35.4088 57.266 29.8456 54.3598C27.3259 53.0433 24.3433 52.9852 21.7319 54.2012ZM99.5461 54.0291C93.9549 56.5688 92.3594 63.9753 96.4304 68.491C101.304 73.8978 110.108 71.9359 112.127 64.9934C113.4 60.6129 111.268 55.9803 107.085 54.0395C105.173 53.1526 101.487 53.1473 99.5461 54.0291ZM27.7527 57.0795C31.5877 58.7202 32.571 63.5722 29.6587 66.4845C24.6822 71.461 17.1581 65.2114 20.8465 59.1648C21.6336 57.8742 23.9779 56.6065 25.601 56.5936C26.1497 56.5893 27.1179 56.808 27.7527 57.0795ZM43.072 58.1994V59.8132H41.4583H39.8445V58.1994V56.5857H41.4583H43.072V58.1994ZM50.2443 58.1994V59.8132H48.4513H46.6582V58.1994V56.5857H48.4513H50.2443V58.1994ZM57.058 58.1994V59.8132H55.4443H53.8305V58.1994V56.5857H55.4443H57.058V58.1994ZM64.2303 58.1994V59.8132H62.4373H60.6442V58.1994V56.5857H62.4373H64.2303V58.1994ZM71.044 58.1994V59.8132H69.4303H67.8165V58.1994V56.5857H69.4303H71.044V58.1994ZM78.2163 58.1994V59.8132H76.4233H74.6302V58.1994V56.5857H76.4233H78.2163V58.1994ZM85.2542 58.1994V59.8132H83.5285H81.8025V58.1994V56.5857H83.5285H85.2542V58.1994ZM106.724 57.815C108.526 59.1889 109.168 60.6251 108.982 62.8632C108.712 66.1191 106.513 68.1876 103.319 68.1876C100.126 68.1876 97.9266 66.1191 97.6565 62.8632C97.5518 61.5998 97.687 60.6499 98.0797 59.8903C98.699 58.6925 100.537 57.1383 101.706 56.8249C103.229 56.416 105.469 56.8579 106.724 57.815ZM46.6582 61.7856V63.3994H44.8651H43.072V61.7856V60.1718H44.8651H46.6582V61.7856ZM53.4719 61.7856V63.3994H51.8581H50.2443V61.7856V60.1718H51.8581H53.4719V61.7856ZM60.6442 61.7856V63.3994H58.8511H57.058V61.7856V60.1718H58.8511H60.6442V61.7856ZM67.8165 61.7856V63.3994H66.0234H64.2303V61.7856V60.1718H66.0234H67.8165V61.7856ZM74.6302 61.7856V63.3994H73.0164H71.4026V61.7856V60.1718H73.0164H74.6302V61.7856ZM81.8025 61.7856V63.3994H80.0094H78.2163V61.7856V60.1718H80.0094H81.8025V61.7856ZM88.6162 61.7856V63.3994H87.0024H85.3886V61.7856V60.1718H87.0024H88.6162V61.7856Z" fill="#FFAA01"/>
</svg>
