<svg width="28" height="18" viewBox="0 0 28 18" fill="none" xmlns="http://www.w3.org/2000/svg">
<path fill-rule="evenodd" clip-rule="evenodd" d="M24.7929 13.6449C21.7899 15.8469 17.4365 17.0177 13.6873 17.0177C8.43302 17.0177 3.70158 15.0878 0.121446 11.8759C-0.1596 11.6236 0.0907738 11.2792 0.428886 11.4748C4.2915 13.708 9.06858 15.0531 14.0026 15.0531C17.3309 15.0531 20.9895 14.3671 24.3564 12.9482C24.8636 12.7335 25.2894 13.2799 24.7929 13.6449ZM26.042 12.2275C26.4264 12.7165 25.6147 14.7299 25.2523 15.6293C25.1425 15.9014 25.3779 16.0113 25.6261 15.8051C27.2368 14.4663 27.6533 11.6605 27.3238 11.2551C26.9964 10.8533 24.1802 10.5074 22.4611 11.7066C22.1965 11.8908 22.2421 12.146 22.5353 12.1105C23.5033 11.9957 25.6582 11.7384 26.042 12.2275Z" fill="#FF9900"/>
<path fill-rule="evenodd" clip-rule="evenodd" d="M21.695 8.6222L24.8207 0.717904C24.8864 0.557734 24.9199 0.445048 24.9199 0.379138C24.9199 0.266452 24.8535 0.209755 24.7209 0.209755H23.9255C23.7736 0.209755 23.6702 0.233851 23.6124 0.280626C23.5553 0.32811 23.499 0.431583 23.4419 0.591752L21.5238 6.06799L19.5351 0.591752C19.478 0.431583 19.4216 0.32811 19.3646 0.280626C19.3075 0.233851 19.2034 0.209755 19.0514 0.209755H18.199C18.0663 0.209755 18 0.266452 18 0.379138C18 0.445048 18.0328 0.557734 18.0992 0.717904L20.8411 7.43652L20.5715 8.15658C20.4103 8.60874 20.2305 8.91915 20.0315 9.08854C19.8325 9.25792 19.5529 9.34226 19.1934 9.34226C19.0322 9.34226 18.9045 9.33233 18.8103 9.31391C18.7155 9.29548 18.6441 9.28556 18.597 9.28556C18.4551 9.28556 18.3838 9.37486 18.3838 9.55345V9.92057C18.3838 10.0524 18.4073 10.1488 18.4551 10.2097C18.5022 10.2707 18.5778 10.316 18.6826 10.3437C18.9188 10.4089 19.1891 10.4429 19.4923 10.4429C20.0322 10.4429 20.4702 10.3019 20.8062 10.0191C21.1436 9.73772 21.4396 9.27138 21.695 8.6222Z" fill="#232F3E"/>
<path fill-rule="evenodd" clip-rule="evenodd" d="M10.0259 2.15237C9.88823 1.69596 9.69207 1.30758 9.43599 0.987949C9.18062 0.668318 8.86819 0.423103 8.49869 0.25372C8.1299 0.0843371 7.71761 0 7.26251 0C6.83666 0 6.41937 0.0793761 6.01278 0.239546C5.60547 0.399715 5.22171 0.635009 4.86148 0.945426L4.79087 0.493266C4.76233 0.305456 4.6532 0.211197 4.46345 0.211197H3.83859C3.64956 0.211197 3.55469 0.305456 3.55469 0.493266V9.99288C3.55469 10.1814 3.64956 10.2749 3.83859 10.2749H4.67674C4.86648 10.2749 4.96064 10.1807 4.96064 9.99288V6.69027C5.57623 7.24519 6.31023 7.52301 7.16264 7.52301C7.6263 7.52301 8.04787 7.43088 8.42664 7.24803C8.80541 7.06447 9.12712 6.80792 9.39247 6.47836C9.65783 6.14952 9.86398 5.7498 10.0102 5.27851C10.1571 4.80792 10.2306 4.28064 10.2306 3.69737C10.232 3.12402 10.1629 2.60878 10.0259 2.15237ZM6.83666 6.39332C6.19182 6.39332 5.56695 6.16795 4.96135 5.71579V1.77817C5.55768 1.34514 6.19253 1.12898 6.86519 1.12898C8.15344 1.12898 8.79757 2.00921 8.79757 3.76824C8.79685 5.51876 8.14346 6.39332 6.83666 6.39332Z" fill="#232F3E"/>
<path fill-rule="evenodd" clip-rule="evenodd" d="M16.4331 0.554212C16.0065 0.187807 15.3439 0.00424957 14.4444 0.00424957C13.9993 0.00424957 13.5541 0.0446463 13.109 0.124022C12.6632 0.204107 12.2894 0.309706 11.9863 0.441527C11.8729 0.489011 11.7965 0.537912 11.7587 0.589648C11.7209 0.641384 11.7017 0.733517 11.7017 0.864629V1.24521C11.7017 1.41459 11.763 1.49964 11.8864 1.49964C11.9242 1.49964 11.9649 1.49255 12.0077 1.47838C12.0505 1.4642 12.0861 1.45286 12.114 1.44294C12.8437 1.22678 13.5392 1.11835 14.2026 1.11835C14.7704 1.11835 15.1684 1.22182 15.3959 1.42948C15.6235 1.63642 15.7369 1.99361 15.7369 2.50176V3.43301C15.0742 3.27284 14.4772 3.19347 13.9465 3.19347C13.1133 3.19347 12.4506 3.39829 11.9577 3.80721C11.4656 4.21614 11.2188 4.76469 11.2188 5.45143C11.2188 6.09211 11.4178 6.60168 11.8158 6.98296C12.2131 7.36425 12.7531 7.55419 13.435 7.55419C13.8423 7.55419 14.2518 7.4741 14.6641 7.31464C15.0764 7.15518 15.4523 6.92839 15.7933 6.63711L15.8646 7.10274C15.8931 7.28133 15.9973 7.37063 16.1777 7.37063H16.7883C16.9774 7.37063 17.0729 7.27637 17.0729 7.08856V2.26222C17.0722 1.49042 16.8589 0.921327 16.4331 0.554212ZM15.7369 5.77744C15.4245 6.01273 15.0978 6.19133 14.7568 6.31394C14.4158 6.43655 14.0891 6.4975 13.7767 6.4975C13.4072 6.4975 13.1233 6.40111 12.9243 6.20834C12.7253 6.01557 12.6261 5.74059 12.6261 5.38269C12.6261 4.56412 13.1611 4.15448 14.2311 4.15448C14.4772 4.15448 14.7304 4.17149 14.9908 4.20409C15.2511 4.2374 15.5001 4.28205 15.7369 4.33804V5.77744Z" fill="#232F3E"/>
</svg>
