<svg width="20" height="20" viewBox="0 0 20 20" fill="none" xmlns="http://www.w3.org/2000/svg">
<mask id="mask0_284_21571" style="mask-type:alpha" maskUnits="userSpaceOnUse" x="0" y="0" width="20" height="20">
<rect width="20" height="20" fill="white"/>
</mask>
<g mask="url(#mask0_284_21571)">
<path d="M7.08268 12.2222C7.08268 13.2961 7.95324 14.1667 9.02713 14.1667H10.8327C11.9833 14.1667 12.916 13.2339 12.916 12.0833C12.916 10.9327 11.9833 10 10.8327 10H9.16602C8.01542 10 7.08268 9.06726 7.08268 7.91667C7.08268 6.76608 8.01542 5.83334 9.16602 5.83334H10.9716C12.0455 5.83334 12.916 6.7039 12.916 7.77778M9.99935 4.58334V5.83334M9.99935 14.1667V15.4167M18.3327 10C18.3327 14.6024 14.6017 18.3333 9.99935 18.3333C5.39698 18.3333 1.66602 14.6024 1.66602 10C1.66602 5.39763 5.39698 1.66667 9.99935 1.66667C14.6017 1.66667 18.3327 5.39763 18.3327 10Z" stroke="#00A266" stroke-width="2" stroke-linecap="round" stroke-linejoin="round"/>
</g>
</svg>
