<svg width="38" height="37" viewBox="0 0 38 37" fill="none" xmlns="http://www.w3.org/2000/svg">
<mask id="mask0_253_7643" style="mask-type:alpha" maskUnits="userSpaceOnUse" x="0" y="0" width="38" height="37">
<rect x="0.25" width="37" height="37" fill="white"/>
</mask>
<g mask="url(#mask0_253_7643)">
<path d="M17.6442 5.32385C17.9996 4.60399 18.1772 4.24406 18.4184 4.12906C18.6283 4.029 18.8721 4.029 19.0819 4.12906C19.3231 4.24406 19.5008 4.60399 19.8561 5.32385L23.2273 12.1534C23.3322 12.3659 23.3846 12.4722 23.4613 12.5547C23.5291 12.6277 23.6105 12.6869 23.7009 12.7289C23.8031 12.7764 23.9203 12.7936 24.1548 12.8278L31.6955 13.93C32.4896 14.0461 32.8866 14.1041 33.0704 14.2981C33.2302 14.4668 33.3054 14.6987 33.275 14.9291C33.24 15.194 32.9526 15.474 32.3777 16.0339L26.9232 21.3466C26.7532 21.5122 26.6682 21.595 26.6133 21.6935C26.5648 21.7807 26.5336 21.8766 26.5216 21.9757C26.508 22.0876 26.5281 22.2046 26.5682 22.4385L27.8552 29.9424C27.9909 30.7339 28.0588 31.1296 27.9312 31.3644C27.8203 31.5687 27.623 31.712 27.3944 31.7544C27.1316 31.8031 26.7763 31.6163 26.0655 31.2425L19.3242 27.6973C19.1142 27.5869 19.0092 27.5316 18.8985 27.5099C18.8006 27.4907 18.6998 27.4907 18.6018 27.5099C18.4912 27.5316 18.3862 27.5869 18.1761 27.6973L11.4348 31.2425C10.7241 31.6163 10.3688 31.8031 10.106 31.7544C9.87738 31.712 9.68011 31.5687 9.56913 31.3644C9.44158 31.1296 9.50945 30.7339 9.64519 29.9424L10.9322 22.4385C10.9723 22.2046 10.9924 22.0876 10.9788 21.9757C10.9668 21.8766 10.9356 21.7807 10.8871 21.6935C10.8322 21.595 10.7472 21.5122 10.5771 21.3465L5.12269 16.0339C4.54781 15.474 4.26037 15.194 4.22539 14.9291C4.19496 14.6987 4.27014 14.4668 4.43001 14.2981C4.61375 14.1041 5.01079 14.0461 5.80486 13.93L13.3456 12.8278C13.5801 12.7936 13.6973 12.7764 13.7994 12.7289C13.8898 12.6869 13.9712 12.6277 14.0391 12.5547C14.1158 12.4722 14.1682 12.3659 14.2731 12.1534L17.6442 5.32385Z" fill="#FFAA01"/>
</g>
</svg>
