<svg width="23" height="27" viewBox="0 0 23 27" fill="none" xmlns="http://www.w3.org/2000/svg">
<path fill-rule="evenodd" clip-rule="evenodd" d="M6.31374 25.9664L6.76817 23.0078L5.75586 22.9836H0.921875L4.28132 1.15082C4.29179 1.0847 4.32562 1.02333 4.37503 0.979673C4.42469 0.936014 4.48797 0.912064 4.55418 0.912064H12.705C15.4112 0.912064 17.2786 1.48911 18.2534 2.62824C18.7105 3.16263 19.0016 3.72122 19.1425 4.33569C19.2903 4.9806 19.2927 5.75099 19.1486 6.69079L19.1382 6.75915V7.36139L19.5953 7.62684C19.9801 7.83615 20.2861 8.07566 20.5207 8.34984C20.9116 8.80688 21.1645 9.38768 21.2713 10.076C21.3819 10.784 21.3453 11.6268 21.1645 12.5808C20.9559 13.678 20.6188 14.6338 20.1634 15.4156C19.7447 16.1361 19.2112 16.7339 18.5776 17.1969C17.9727 17.637 17.2542 17.9711 16.4417 18.1849C15.6543 18.3949 14.7567 18.501 13.7721 18.501H13.1378C12.6843 18.501 12.2438 18.6684 11.8979 18.9685C11.551 19.2749 11.3218 19.6935 11.2514 20.1513L11.2035 20.4177L10.4005 25.6326L10.3642 25.824C10.3545 25.8846 10.3379 25.9148 10.3136 25.9352C10.2919 25.954 10.2608 25.9664 10.2303 25.9664H6.31374Z" fill="#28356A"/>
<path fill-rule="evenodd" clip-rule="evenodd" d="M20.0283 6.82869C20.0042 6.98811 19.9763 7.15102 19.9451 7.31842C18.8702 12.9751 15.1927 14.9293 10.4959 14.9293H8.10451C7.53008 14.9293 7.04595 15.3567 6.95662 15.9375L5.38545 26.1525C5.32728 26.5339 5.61401 26.8775 5.98933 26.8775H10.2309C10.733 26.8775 11.1597 26.5035 11.2388 25.9958L11.2804 25.775L12.079 20.5806L12.1304 20.2957C12.2085 19.7862 12.6362 19.412 13.1383 19.412H13.7726C17.882 19.412 21.0991 17.7021 22.0393 12.7534C22.432 10.6862 22.2287 8.96 21.1894 7.74603C20.8749 7.38004 20.4847 7.07617 20.0283 6.82869Z" fill="#298FC2"/>
<path fill-rule="evenodd" clip-rule="evenodd" d="M18.9035 6.36921C18.7392 6.32006 18.5698 6.27566 18.396 6.23549C18.2212 6.19632 18.0423 6.16164 17.8581 6.13121C17.2133 6.02443 16.5067 5.97379 15.75 5.97379H9.36137C9.20388 5.97379 9.05443 6.01021 8.92081 6.07607C8.62604 6.22127 8.40722 6.50718 8.35416 6.8572L6.995 15.6803L6.95605 15.9375C7.04538 15.3568 7.52951 14.9294 8.10394 14.9294H10.4954C15.1921 14.9294 18.8697 12.9742 19.9445 7.31849C19.9767 7.15108 20.0037 6.98817 20.0278 6.82876C19.7559 6.68081 19.4614 6.55433 19.1442 6.44655C19.0659 6.41986 18.985 6.39416 18.9035 6.36921Z" fill="#22284F"/>
<path fill-rule="evenodd" clip-rule="evenodd" d="M8.35425 6.85723C8.40732 6.50721 8.62613 6.2213 8.9209 6.0771C9.0555 6.01099 9.20397 5.97457 9.36146 5.97457H15.7501C16.5068 5.97457 17.2134 6.02546 17.8582 6.13224C18.0424 6.16242 18.2213 6.19735 18.3961 6.23652C18.5699 6.27644 18.7393 6.32109 18.9036 6.36999C18.9851 6.39494 19.0659 6.42089 19.145 6.44658C19.4622 6.55436 19.757 6.68184 20.0288 6.82879C20.3487 4.73839 20.0262 3.3151 18.9235 2.02628C17.7078 0.607236 15.5137 0 12.7061 0H4.55497C3.98152 0 3.49227 0.427361 3.40368 1.00915L0.00868857 23.0665C-0.0582473 23.5028 0.270104 23.8965 0.699467 23.8965H5.73158L8.35425 6.85723Z" fill="#28356A"/>
</svg>
