<svg width="22" height="22" viewBox="0 0 22 22" fill="none" xmlns="http://www.w3.org/2000/svg">
<path d="M17.25 6V2.25C17.25 1.91848 17.1183 1.60054 16.8839 1.36612C16.6495 1.1317 16.3315 1 16 1H3.5C2.83696 1 2.20107 1.26339 1.73223 1.73223C1.26339 2.20107 1 2.83696 1 3.5C1 4.16304 1.26339 4.79893 1.73223 5.26777C2.20107 5.73661 2.83696 6 3.5 6H18.5C18.8315 6 19.1495 6.1317 19.3839 6.36612C19.6183 6.60054 19.75 6.91848 19.75 7.25V11M19.75 16V19.75C19.75 20.0815 19.6183 20.3995 19.3839 20.6339C19.1495 20.8683 18.8315 21 18.5 21H3.5C2.83696 21 2.20107 20.7366 1.73223 20.2678C1.26339 19.7989 1 19.163 1 18.5V3.5" stroke="#ffffff" stroke-width="2" stroke-linecap="round" stroke-linejoin="round"/>
<path d="M21 11V16H16C15.337 16 14.7011 15.7366 14.2322 15.2678C13.7634 14.7989 13.5 14.163 13.5 13.5C13.5 12.837 13.7634 12.2011 14.2322 11.7322C14.7011 11.2634 15.337 11 16 11H21Z" stroke="#ffffff" stroke-width="2" stroke-linecap="round" stroke-linejoin="round"/>
</svg>
